<svg xmlns="http://www.w3.org/2000/svg" viewBox="23.35 36.71 172.64 25.1">
  <g fill="#000">
    <path d="m101.59 40.21-.36-.06-.15-.02-.62-.07-.42-.03c-.25-.02-.5-.02-.74-.02h-.28a13 13 0 0 0-.92.05l-.47.05-.13.02-.14.02-.18.03-.23.05-.3.06a10.97 10.97 0 0 0-4.02 1.73l-.25.19a11.5 11.5 0 0 0-.9.78l-.32.34-.32.37c-.1.14-.22.27-.32.42l-.23.32-.14.23a8.97 8.97 0 0 0-1.33 5.25l.04.43v.1a9.74 9.74 0 0 0 .38 1.6 8.23 8.23 0 0 0 .92 1.96 10.77 10.77 0 0 0 .55.78l.34.42.43.45.07.07.38.35.31.26.32.24a18.1 18.1 0 0 0 .93.6 9.62 9.62 0 0 0 2.19.9 10.44 10.44 0 0 0 1.82.36 12.71 12.71 0 0 0 1.37.1h.21c.56 0 1.08-.02 1.56-.06l.1-.01.55-.06a11.6 11.6 0 0 0 1.9-.37l.45-.12.5-.16.14-.06.3-.11.58-.23.42-.19a24.29 24.29 0 0 0 .58-.28v-3.41l-.12.06-.24.15a17.42 17.42 0 0 1-1.41.77 12.18 12.18 0 0 1-3.26 1.05l-.21.04a11.69 11.69 0 0 1-1.5.12 11.1 11.1 0 0 1-1.66-.13c-.5-.08-1-.21-1.48-.39l-.21-.08-.14-.06-.24-.1a9.02 9.02 0 0 1-.5-.26l-.24-.14c-.08-.06-.16-.1-.24-.17a6.4 6.4 0 0 1-.3-.21l-.26-.22-.12-.1-.05-.05-.04-.03-.04-.05c-.15-.15-.3-.3-.42-.45l-.2-.27-.18-.25a4.2 4.2 0 0 1-.34-.6 7.11 7.11 0 0 1-.44-1.2 6.32 6.32 0 0 1-.16-.96l-.02-.3-.01-.35v-.22a6.57 6.57 0 0 1 .68-2.64l.15-.26c.1-.2.24-.39.38-.58l.16-.2.23-.27.13-.13a7.05 7.05 0 0 1 2.06-1.43l.34-.14c.12-.05.23-.1.35-.13l.38-.12.36-.1a7.93 7.93 0 0 1 1.89-.2h.23a15.22 15.22 0 0 1 1.49.13l.5.08c.25.05.47.1.67.16l.37.1.42.13.29.1.5.2c.21.08.42.18.62.27l.47.22.34.18.47.25.36.2v-3.36l-.57-.23-.57-.2-.38-.14-.33-.1c-.13-.05-.26-.1-.4-.13l-.3-.09-.1-.03-.3-.08-.37-.1-.24-.06a9.06 9.06 0 0 0-.4-.08l-.42-.09m-16.8-3.49h26.67v25.09H84.79V36.72zM64.3 50.56v4.93h3.37a6.51 6.51 0 0 0 1.7-.28c.4-.14.79-.34 1.09-.64a2.13 2.13 0 0 0 .61-1.38l.01-.15v-.13c0-.1-.01-.28-.07-.47a1.99 1.99 0 0 0-.78-1.15 3 3 0 0 0-.6-.33 4.41 4.41 0 0 0-1.53-.37 7.26 7.26 0 0 0-.7-.03h-3.1m0-7.5v4.68h1.55l.24-.01.35-.01c.32-.03.76-.07 1.2-.2l.26-.08c.34-.12.68-.3.93-.55a2.2 2.2 0 0 0 .6-1.35l.01-.27v-.2c-.01-.2-.05-.53-.21-.85a1.77 1.77 0 0 0-.95-.84 4.14 4.14 0 0 0-1.84-.32H64.3"/>
    <path d="M61.07 40.24V58.3h6.8s3.32.1 5.15-1.74c1.49-1.49 1.38-3.21 1.38-3.21s.1-1.8-1.27-3.18a5.96 5.96 0 0 0-2.68-1.5s.68-.31 1.2-.83c.24-.25 1.1-1.03 1.1-2.93 0-1.92-1.27-3.02-1.27-3.02s-1.4-1.66-4.55-1.66h-5.86m-7-3.52h26.66V61.8H54.07V36.72zM33.58 50.56v4.93h3.37a6.58 6.58 0 0 0 1.7-.28c.4-.14.79-.34 1.09-.64a2.18 2.18 0 0 0 .62-1.38v-.28c0-.1-.02-.28-.07-.47a1.99 1.99 0 0 0-.78-1.15 4.37 4.37 0 0 0-2.12-.7 7.37 7.37 0 0 0-.71-.03h-3.1m0-7.5v4.68h1.55l.24-.01.35-.01c.32-.03.76-.07 1.2-.2l.26-.08c.35-.12.68-.3.94-.55.2-.2.33-.43.43-.65.1-.26.14-.52.16-.7l.01-.27v-.2c-.01-.2-.06-.53-.22-.85a1.8 1.8 0 0 0-.93-.85 4.24 4.24 0 0 0-1.85-.3h-2.14"/>
    <path d="M30.34 40.24V58.3h6.8s3.32.1 5.15-1.74c1.5-1.49 1.39-3.21 1.39-3.21s.1-1.8-1.27-3.19c-1.18-1.17-2.68-1.49-2.68-1.49s.68-.31 1.2-.84c.24-.24 1.1-1.02 1.1-2.93 0-1.92-1.27-3.02-1.27-3.02s-1.4-1.65-4.55-1.65h-5.87m-6.99-3.52h26.66V61.8H23.35V36.72z"/>
  </g>
  <path fill="#000" d="M-1105.98-587.52v15.17h7.87v2.25h-10.38v-17.42h2.5zm15.1 5.72c1.8.02 3.3.58 4.46 1.67a5.52 5.52 0 0 1 1.75 4.2c0 1.81-.57 3.27-1.72 4.39a6.17 6.17 0 0 1-4.49 1.67c-1.75 0-3.2-.57-4.34-1.7a5.88 5.88 0 0 1-1.71-4.35c0-1.65.58-3.04 1.75-4.17a5.97 5.97 0 0 1 4.3-1.68zm-.02 2.05a3.64 3.64 0 0 0-2.66 1.1 3.75 3.75 0 0 0-1.05 2.73c0 1.2.35 2.18 1.04 2.92a3.48 3.48 0 0 0 2.67 1.11 3.8 3.8 0 0 0 2.86-1.07c.7-.71 1.05-1.7 1.05-2.94a3.7 3.7 0 0 0-1.1-2.74 3.83 3.83 0 0 0-2.81-1.09zm11-1.82v1.5h.05a5 5 0 0 1 1.58-1.24 3.99 3.99 0 0 1 4.62.67c.76.76 1.14 1.92 1.14 3.5v7.04h-2.28v-7.1c0-.83-.2-1.5-.6-2a2 2 0 0 0-1.65-.76 2.84 2.84 0 0 0-1.99.8c-.27.24-.56.52-.87.86v8.2h-2.27v-11.47h2.27zm20.47-5.95v17.42h-4.83a5.3 5.3 0 0 1-4.06-1.6 6.14 6.14 0 0 1-1.51-4.38c0-1.67.54-3.03 1.6-4.1a5.6 5.6 0 0 1 4.58-1.57 5.72 5.72 0 0 1 1.94.44v-6.21h2.28zm-2.28 15.5v-7.3a8.2 8.2 0 0 0-1.57-.38 5.77 5.77 0 0 0-.55-.03c-1.09 0-1.97.36-2.65 1.09a4.06 4.06 0 0 0-1.03 2.9c0 1.07.26 1.96.77 2.68.51.71 1.42 1.07 2.73 1.07l2.3-.02zm10.75-9.78c1.8.02 3.3.58 4.46 1.67a5.52 5.52 0 0 1 1.75 4.2c0 1.81-.57 3.27-1.72 4.39a6.17 6.17 0 0 1-4.49 1.67c-1.75 0-3.2-.57-4.34-1.7a5.88 5.88 0 0 1-1.71-4.35c0-1.65.58-3.04 1.75-4.17a5.97 5.97 0 0 1 4.3-1.68zm-.02 2.05a3.64 3.64 0 0 0-2.66 1.1 3.75 3.75 0 0 0-1.05 2.73c0 1.2.35 2.18 1.04 2.92a3.48 3.48 0 0 0 2.67 1.11 3.8 3.8 0 0 0 2.86-1.07c.7-.71 1.05-1.7 1.05-2.94a3.7 3.7 0 0 0-1.1-2.74 3.83 3.83 0 0 0-2.81-1.09zm11-1.82v1.5h.05a5 5 0 0 1 1.58-1.24 3.99 3.99 0 0 1 4.62.67c.76.76 1.14 1.92 1.14 3.5v7.04h-2.28v-7.1c0-.83-.2-1.5-.6-2a2 2 0 0 0-1.65-.76 2.84 2.84 0 0 0-1.99.8c-.27.24-.56.52-.87.86v8.2h-2.27v-11.47h2.27z" font-family="GillSans" font-size="25.55" font-weight="400" letter-spacing="0" style="line-height:125%;-inkscape-font-specification:GillSans" transform="translate(1228.58 628.31)" word-spacing="0"/>
</svg>