<svg xmlns="http://www.w3.org/2000/svg" viewBox="0 0 213 87"><defs><style>.cls-1{fill:#0c1c5f;}</style></defs><title>Business Wire Logo 213x87</title><g id="Layer_1" data-name="Layer 1"><path class="cls-1" d="M19.68,23.82A19.68,19.68,0,1,0,39.36,43.5,19.68,19.68,0,0,0,19.68,23.82ZM10.8,39.44a5.74,5.74,0,0,1,2.29-.4A6.88,6.88,0,0,1,20,45.91a6.77,6.77,0,0,1-.45,2.41,1.43,1.43,0,0,1-1.29.8,1.46,1.46,0,0,1-1-.43,1.41,1.41,0,0,1-.41-1,1.66,1.66,0,0,1,.12-.57s.07-.25.08-.3a3.8,3.8,0,0,0,.1-.89,4,4,0,0,0-4-4,3.83,3.83,0,0,0-.88.1l-.27.06a1.39,1.39,0,0,1-1.8-.8A1.45,1.45,0,0,1,10.8,39.44Zm0,13.07a1.35,1.35,0,0,1-.5-.1,6.9,6.9,0,0,1-4-6.2V34.73a1.44,1.44,0,0,1,2.88,0V46.16a4,4,0,0,0,2.05,3.48l.19.11a1.42,1.42,0,0,1,.89,1.3A1.46,1.46,0,0,1,10.76,52.51Zm17,.64A6,6,0,0,1,23,50.64a6,6,0,0,1-4.81,2.51c-3.41,0-6.2-3-6.23-6.81v-.85a1.43,1.43,0,1,1,2.86,0v.79c0,2.21,1.51,4,3.37,4s3.38-1.8,3.38-4V40.19a1.43,1.43,0,0,1,2.86,0v6.09c0,2.21,1.51,4,3.37,4s3.37-1.8,3.37-4V40.19a1.43,1.43,0,1,1,2.86,0v6.09C34,50.07,31.23,53.15,27.79,53.15Z"/><path class="cls-1" d="M56.31,32.69a7.78,7.78,0,0,1,8,8.1A8,8,0,0,1,49.6,45.3l-.22,3.28H48.25V27.48h1.41v8.7a7.82,7.82,0,0,1,6.65-3.49Zm6.52,8.1a6.47,6.47,0,0,0-6.61-6.73,6.73,6.73,0,0,0,0,13.46A6.46,6.46,0,0,0,62.83,40.79Z"/><path class="cls-1" d="M72.75,48.9c-4.07,0-6.67-2.7-6.67-6.87V33h1.41v8.83c0,3.52,2,5.69,5.26,5.69S78,45.34,78,41.83V33h1.41v9c0,4.17-2.59,6.87-6.67,6.87Z"/><path class="cls-1" d="M87.17,48.9c-3.57,0-5.82-1.81-6-4.73h1.39c.21,2.17,2,3.41,4.68,3.41s4.53-1.24,4.53-3.2c0-2.41-2.34-2.85-4.76-3.26-2.69-.46-5.53-1-5.53-4.17,0-2.54,2.27-4.26,5.63-4.26s5.53,1.73,5.67,4.5H91.4c-.13-2-1.73-3.22-4.35-3.22s-4.23,1.18-4.23,2.94c0,2.12,2.1,2.47,4.49,2.86,2.72.45,5.83,1,5.83,4.56,0,2.76-2.39,4.57-6,4.57Z"/><path class="cls-1" d="M95.76,33h1.42V48.58H95.76Z"/><path class="cls-1" d="M107.83,32.69c3.74,0,6.08,2.69,6.08,6.64v9.25H112.5v-9c0-3.54-1.85-5.62-5-5.62A5.64,5.64,0,0,0,102,39.69v8.89h-1.42V33h1l.28,3.16a6.67,6.67,0,0,1,5.92-3.47Z"/><path class="cls-1" d="M131.28,41.29H117.14A6.48,6.48,0,0,0,129.35,44h1.49a7.71,7.71,0,0,1-7.25,4.86,7.82,7.82,0,0,1-7.86-8.12,7.82,7.82,0,0,1,7.86-8.09c4.55,0,7.72,3.54,7.72,8.05C131.31,40.92,131.29,41.11,131.28,41.29ZM117.16,40h12.75A6.23,6.23,0,0,0,123.59,34,6.34,6.34,0,0,0,117.16,40Z"/><path class="cls-1" d="M138.52,48.9c-3.57,0-5.82-1.81-6-4.73h1.39c.21,2.17,2,3.41,4.68,3.41s4.53-1.24,4.53-3.2c0-2.41-2.34-2.85-4.76-3.26-2.69-.46-5.53-1-5.53-4.17,0-2.54,2.27-4.26,5.63-4.26s5.53,1.73,5.67,4.5h-1.35c-.13-2-1.73-3.22-4.35-3.22s-4.23,1.18-4.23,2.94c0,2.12,2.1,2.47,4.49,2.86,2.72.45,5.83,1,5.83,4.56,0,2.76-2.39,4.57-6,4.57Z"/><path class="cls-1" d="M151.73,48.9c-3.56,0-5.82-1.81-6-4.73h1.39c.21,2.17,2,3.41,4.68,3.41s4.53-1.24,4.53-3.2c0-2.41-2.34-2.85-4.76-3.26-2.69-.46-5.53-1-5.53-4.17,0-2.54,2.27-4.26,5.63-4.26s5.54,1.73,5.67,4.5H156c-.13-2-1.73-3.22-4.34-3.22s-4.24,1.18-4.24,2.94c0,2.12,2.1,2.47,4.5,2.86,2.71.45,5.82,1,5.82,4.56,0,2.76-2.39,4.57-6,4.57Z"/><path class="cls-1" d="M181.69,33l-5.22,15.58h-2.59l-4-9.49-4,9.49h-2.6L158.06,33h3.3l3.51,10.5,4.47-10.33h1l4.53,10.41L178.48,33Z"/><path class="cls-1" d="M183,33h3.2V48.58H183Z"/><path class="cls-1" d="M197.57,32.92v3h-1.69c-2.65,0-4,1.51-4,4.33v8.31h-3.2V33h2.16l.55,2.13a5.52,5.52,0,0,1,4.77-2.21Z"/><path class="cls-1" d="M213,40.83a9.26,9.26,0,0,1-.07,1.05H200.29A4.59,4.59,0,0,0,205.06,46a4.67,4.67,0,0,0,4.19-2.28h3.37a8,8,0,0,1-15.57-2.89,7.92,7.92,0,0,1,8-8.17c4.77,0,7.94,3.68,7.94,8.21Zm-7.94-5.31a4.6,4.6,0,0,0-4.69,3.76h9.42a4.66,4.66,0,0,0-4.73-3.76Z"/><path class="cls-1" d="M50.48,58.73H47.19L46.5,60.4h-.7l2.71-6.54h.6L51.9,60.4h-.71Zm-3-.61h2.79l-1.41-3.36Z"/><path class="cls-1" d="M60.08,58.61a1.84,1.84,0,0,1-2,1.79H55.55V53.86H58.1A1.67,1.67,0,0,1,59,57,1.69,1.69,0,0,1,60.08,58.61ZM56.2,54.5v2.18h1.93a1.09,1.09,0,1,0,0-2.18Zm3.21,4a1.22,1.22,0,0,0-1.26-1.21H56.2v2.43h1.94A1.22,1.22,0,0,0,59.41,58.53Z"/><path class="cls-1" d="M65.48,59.77v.63H61.73V53.86h3.65v.62h-3v2.23h2.75v.61H62.39v2.45Z"/><path class="cls-1" d="M69.34,57.75H67.68V60.4H67V53.86h2.45a2,2,0,0,1,2.09,2A1.91,1.91,0,0,1,70,57.69l1.61,2.71H70.9Zm-1.66-.62h1.76a1.33,1.33,0,1,0,0-2.65H67.68Z"/><path class="cls-1" d="M74.78,57.32h-1V60.4h-.65V53.86h.65V56.7h1L77,53.86h.84L75.37,57l2.71,3.4h-.84Z"/><path class="cls-1" d="M78.54,58.41h.66c0,.89.71,1.43,1.71,1.43s1.59-.5,1.59-1.26-.82-1-1.71-1.25-2.12-.49-2.12-1.77c0-1.1.86-1.79,2.18-1.79A1.89,1.89,0,0,1,83,55.67h-.65c0-.79-.62-1.27-1.5-1.27s-1.52.44-1.52,1.14.81,1,1.69,1.19,2.16.51,2.16,1.84-1,1.91-2.26,1.91A2.1,2.1,0,0,1,78.54,58.41Z"/><path class="cls-1" d="M89.66,53.86V60.4H89V57.33H85.36V60.4h-.65V53.86h.65V56.7H89V53.86Z"/><path class="cls-1" d="M91.68,53.86h.66V60.4h-.66Z"/><path class="cls-1" d="M96.67,57.75H95V60.4h-.66V53.86H96.8a2,2,0,0,1,2.09,2,1.91,1.91,0,0,1-1.53,1.88L99,60.4h-.74ZM95,57.13h1.76a1.33,1.33,0,1,0,0-2.65H95Z"/><path class="cls-1" d="M104.25,59.77v.63H100.5V53.86h3.65v.62h-3v2.23h2.75v.61h-2.75v2.45Z"/><path class="cls-1" d="M113.41,53.86V60.4h-.65V57.33h-3.65V60.4h-.65V53.86h.65V56.7h3.65V53.86Z"/><path class="cls-1" d="M119.37,58.73h-3.29l-.7,1.67h-.69l2.7-6.54H118l2.78,6.54h-.71Zm-3.05-.61h2.8l-1.41-3.36Z"/><path class="cls-1" d="M125.45,54.47h-2V60.4h-.65V54.47h-2v-.61h4.73Z"/><path class="cls-1" d="M131.69,53.86V60.4H131V57.33H127.4V60.4h-.66V53.86h.66V56.7H131V53.86Z"/><path class="cls-1" d="M137.65,58.73h-3.29l-.69,1.67H133l2.71-6.54h.6l2.78,6.54h-.71Zm-3-.61h2.79L136,54.76Z"/><path class="cls-1" d="M148.39,53.86l-2.08,6.54h-.57l-1.89-5-1.85,5h-.57l-2.12-6.54H140l1.73,5.45,2-5.29H144l2,5.3,1.7-5.46Z"/><path class="cls-1" d="M153.33,58.73H150l-.69,1.67h-.7l2.71-6.54H152l2.78,6.54H154Zm-3.05-.61h2.79l-1.41-3.36Z"/><path class="cls-1" d="M157.77,57.8v2.6h-.68V57.8l-2.43-3.94h.72l2.05,3.32,2.07-3.32h.72Z"/><path class="cls-1" d="M163.52,57.13a3.24,3.24,0,0,1,3.35-3.37A3.07,3.07,0,0,1,169.94,56h-.67a2.45,2.45,0,0,0-2.4-1.59,2.73,2.73,0,0,0,0,5.46,2.48,2.48,0,0,0,2.44-1.7H170a3.11,3.11,0,0,1-3.11,2.34A3.24,3.24,0,0,1,163.52,57.13Z"/><path class="cls-1" d="M170.94,57.13a3.41,3.41,0,1,1,3.41,3.37A3.3,3.3,0,0,1,170.94,57.13Zm6.15,0a2.74,2.74,0,1,0-2.74,2.73A2.66,2.66,0,0,0,177.09,57.13Z"/><path class="cls-1" d="M186.14,60.4,185.23,55l-2.34,5.17h-.18L180.37,55l-.92,5.38h-.67l1.12-6.54h.63l2.26,5.08,2.28-5.08h.64l1.1,6.54Z"/><path class="cls-1" d="M192.77,55.91A2,2,0,0,1,190.64,58H189V60.4h-.65V53.86h2.3A2,2,0,0,1,192.77,55.91Zm-.67,0a1.42,1.42,0,0,0-1.5-1.42H189v2.84h1.61A1.42,1.42,0,0,0,192.1,55.91Z"/><path class="cls-1" d="M197.65,58.73h-3.29l-.7,1.67H193l2.71-6.54h.61l2.78,6.54h-.71Zm-3.05-.61h2.8L196,54.76Z"/><path class="cls-1" d="M205.47,53.86V60.4h-.55L201,55V60.4h-.64V53.86h.59l3.9,5.34V53.86Z"/><path class="cls-1" d="M209.94,57.8v2.6h-.67V57.8l-2.43-3.94h.72l2.05,3.32,2.06-3.32h.72Z"/></g></svg>