<svg xmlns="http://www.w3.org/2000/svg" fill="none" viewBox="0 0 177.16 42.85">
  <path fill="url(#a)" d="M174.3 0H71.31a2.87 2.87 0 0 0-2.85 2.86V40a2.87 2.87 0 0 0 2.85 2.85H174.3a2.87 2.87 0 0 0 2.86-2.85V2.86A2.87 2.87 0 0 0 174.3 0Z"/>
  <path fill="url(#b)" d="M70.5 21.25h.28L175 17.6a2.16 2.16 0 0 0 2.15-2.18V2.86A2.87 2.87 0 0 0 174.3 0H71.31a2.87 2.87 0 0 0-2.85 2.86V23.5c0-.25.03-2.04 2.03-2.25Z" opacity=".35"/>
  <path fill="#1C1C1C" fill-rule="evenodd" d="M27.07 29.67c0 1.97-.79 3.11-4.64 3.11-.5 0-.97-.03-1.4-.1V6.52c0-2 .68-4.07 4.57-4.07.5 0 1 .04 1.47.15v27.06Zm15.75 10.11c.5.25 1.53.57 2.85.6 2.25.04 3.47-.81 4.36-2.81l12-26.71c-.5-.25-1.6-.58-2.5-.58-1.54-.03-3.6.29-4.93 3.43l-3.9 9.14-7.6-12.39a11.9 11.9 0 0 0-2.57-.35c-2.71 0-4.21 1-5.75 2.67l-7.43 8.07 5.97 9.36c1.1 1.71 2.53 2.57 4.89 2.57 1.54 0 2.82-.36 3.43-.64l-7.18-10.75 5.07-5.4 8.36 13.08-5.07 10.71Zm-31-7.18c4.9-.53 7.28-3.21 7.28-6.89 0-3.18-1.96-5.75-6.46-6.5l-4.43-.82c-1.43-.25-2.32-.57-2.32-1.4 0-.78.93-1.38 3.18-1.38 1.29 0 2.47.07 3.48.13.76.04 1.41.08 1.95.08 1.64 0 3.32-.68 3.32-3.9 0-.42-.07-.85-.14-1.24-2.43-.32-6.86-.75-10.47-.36-4.78.5-7.21 3.4-7.21 6.82 0 2.82 2.07 5.5 5.93 6.21l4.64.9c1.71.35 2.57.71 2.57 1.64 0 .68-.68 1.43-2.86 1.43-1.04 0-2.27-.08-3.44-.15-1.08-.07-2.1-.14-2.91-.14-1.64 0-3.36.72-3.36 3.93 0 .4.07.9.14 1.29 2.43.28 7.57.75 11.11.35Z" clip-rule="evenodd"/>
  <path fill="url(#c)" fill-rule="evenodd" d="M25.6 2.46c-3.89 0-4.53 2.08-4.53 4.07v17.93c0-.71.57-1.46 1.46-1.5l1.46-.05 1.54-.06c.61-.03 1.5-.42 1.54-1.53V2.6a9.69 9.69 0 0 0-1.47-.15Zm17.5 8 7.43 12.07c-.29-.39-.64-.57-.96-.57l-2.6.1-2.26.08c-.22 0-1.14 0-1.75-.82l-3.43-5.36-5.07 5.4 1.32 2a2.1 2.1 0 0 0-1.86-.83l-1.91.07-2.3.08c-1 .03-1.5-.54-1.75-.9l-.6-.93 7.42-8.07c1.54-1.67 3.04-2.67 5.75-2.67.86 0 2.07.21 2.57.35Zm14.53 10.2v-.02l4.4-9.78c-.5-.29-1.6-.58-2.47-.58-1.53-.03-3.6.29-4.92 3.43l-3.77 8.9-.02.03.02-.04c.06-.14.34-.64.95-.67 0 0 3.7-.15 4-.15 1.18-.03 1.65-.86 1.8-1.12ZM8.18 18.32l4.43.82c4.53.82 6.5 3.4 6.53 6.57 0 .22 0 .42-.02.61.05-1.65-1.05-3.21-2.94-3.14l-2.14.07-3.15.1c-1.71.08-3.96-.07-4.96-.25a9.4 9.4 0 0 1-3.57-1.28A5.87 5.87 0 0 1 0 17.14c0-3.43 2.43-6.32 7.18-6.9 3.64-.38 8.03.08 10.46.37.1.42.14.82.14 1.25 0 3.21-1.67 3.89-3.32 3.89-.53 0-1.2-.04-1.96-.09-1.02-.06-2.2-.13-3.47-.13-2.25 0-3.17.65-3.17 1.4 0 .82.89 1.14 2.32 1.39Zm10.94 8-.02.07v.11l.02-.18Z" clip-rule="evenodd" opacity=".25"/>
  <path fill="#fff" d="M95.35 19.78v10.9c0 .78-.47 1.32-1.86 1.32-.57 0-1.25-.08-1.6-.18V20.25c0-4.04-1.97-5.97-4.97-5.97a7.22 7.22 0 0 0-5.86 3.5v12.93c0 .79-.46 1.32-1.86 1.32-.57 0-1.25-.07-1.6-.18V11.57c.32-.07 1-.18 1.6-.18 1.4 0 1.86.5 1.86 1.32v1.72a8.42 8.42 0 0 1 6.68-3.25c4.14 0 7.6 2.6 7.6 8.6Z"/>
  <path fill="#fff" fill-rule="evenodd" d="M102.99 22.93h15.64c.1-.72.14-1.43.07-2.04 0-4.9-3.07-9.71-9.28-9.71-5.5 0-10 4.35-10 10.42 0 6.33 4.25 10.57 10.57 10.57 2.93 0 5.67-.89 7.5-1.67.17-1.86-.47-2.65-1.43-2.65-.3 0-.59.1-1.17.29l-.44.14c-1.25.43-2.6.75-4.32.75-4 0-6.68-2.18-7.14-6.1Zm12.42-2.68H103c.53-4 3.35-6.14 6.5-6.14 3.57 0 5.78 2.67 5.92 6.14Z" clip-rule="evenodd"/>
  <path fill="#fff" d="m150.48 11.9-5.35 18.6c-.33 1.17-1.22 1.46-2.5 1.46-.72 0-1.43-.14-2.04-.29l-5.1-16.35-4.8 15.18c-.38 1.17-1.31 1.46-2.42 1.46-.71 0-1.5-.14-2.1-.29l-5.72-19.78a5.6 5.6 0 0 1 2.18-.5c.96 0 1.46.29 1.71 1.22l4.04 15.53h.03l5-16.25c.57-.32 1.36-.5 2.15-.5 1.32 0 2.03.29 2.39 1.5l4.64 15.21h.03l3.93-15.53c.25-.93.75-1.21 1.72-1.21.85.03 1.71.28 2.21.53Zm2.29 18.88c-.25-1.75.28-2.68 1.32-2.68.96 0 3.32 1.04 6.6 1.04 3.47 0 4.75-1.21 4.75-2.82 0-1.14-.5-2.14-3.6-3l-3.57-.97c-3.97-1.03-5.5-3.03-5.5-5.46 0-3.03 2.39-5.71 7.82-5.71 2.43 0 5.46.53 7.32 1.25.32 1.71-.22 2.64-1.25 2.64-.93 0-3.04-.9-6-.9-3.22 0-4.4 1.11-4.4 2.54 0 1 .47 1.93 3.33 2.75l3.64 1c4.07 1.14 5.71 3.04 5.71 5.72 0 3.14-2.43 5.96-8.32 5.96-2.64.03-5.89-.6-7.85-1.36Z"/>
  <defs>
    <linearGradient id="a" x1="68.44" x2="68.44" y1="0" y2="42.85" gradientUnits="userSpaceOnUse">
      <stop offset=".4" stop-color="#E90E10"/>
      <stop offset="1" stop-color="#BC0000"/>
    </linearGradient>
    <linearGradient id="b" x1="172.4" x2="172.36" y1="20.03" y2="-1.32" gradientUnits="userSpaceOnUse">
      <stop stop-color="#fff"/>
      <stop offset="1" stop-color="#fff" stop-opacity=".25"/>
    </linearGradient>
    <linearGradient id="c" x1="49.83" x2="49.76" y1="22.46" y2="8.11" gradientUnits="userSpaceOnUse">
      <stop stop-color="#fff"/>
      <stop offset="1" stop-color="#fff" stop-opacity=".25"/>
    </linearGradient>
  </defs>
</svg>