<svg xmlns="http://www.w3.org/2000/svg" fill="none" viewBox="0 0 512 512">
  <circle cx="256" cy="256" r="256" fill="#071E4A"/>
  <mask id="b" width="217" height="434" x="57" y="39" maskUnits="userSpaceOnUse" style="mask-type:alpha">
    <path fill="url(#a)" fill-rule="evenodd" d="M57 255.98C57 375.64 154.36 473 274 473v-24.36c-106.22 0-192.68-86.44-192.68-192.66 0-106.21 86.46-192.66 192.68-192.66V39C154.36 39 57 136.32 57 255.98Zm217 164.45c-90.7 0-164.46-73.77-164.46-164.45 0-90.69 73.77-164.45 164.46-164.45v24.32c-77.28 0-140.14 62.86-140.14 140.13S196.72 396.1 274 396.1v24.32ZM160.3 256.02c0 62.68 51.01 113.68 113.7 113.68v-24.32c-49.27 0-89.37-40.1-89.37-89.36 0-49.27 40.1-89.37 89.37-89.37v-24.32c-62.69 0-113.7 51-113.7 113.69Zm54.38-.03c0 32.7 26.62 59.3 59.32 59.3v-24.32c-19.28 0-35-15.7-35-34.98a35.04 35.04 0 0 1 35-35v-24.31a59.4 59.4 0 0 0-59.31 59.3Z" clip-rule="evenodd"/>
  </mask>
  <g mask="url(#b)">
    <path fill="#0ABAFA" fill-rule="evenodd" d="M57 255.98C57 375.64 154.36 473 274 473v-24.36c-106.22 0-192.68-86.44-192.68-192.66 0-106.21 86.46-192.66 192.68-192.66V39C154.36 39 57 136.32 57 255.98Zm217 164.45c-90.7 0-164.46-73.77-164.46-164.45 0-90.69 73.77-164.45 164.46-164.45v24.32c-77.28 0-140.14 62.86-140.14 140.13S196.72 396.1 274 396.1v24.32ZM160.3 256.02c0 62.68 51.01 113.68 113.7 113.68v-24.32c-49.27 0-89.37-40.1-89.37-89.36 0-49.27 40.1-89.37 89.37-89.37v-24.32c-62.69 0-113.7 51-113.7 113.69Zm54.38-.03c0 32.7 26.62 59.3 59.32 59.3v-24.32c-19.28 0-35-15.7-35-34.98a35.04 35.04 0 0 1 35-35v-24.31a59.4 59.4 0 0 0-59.31 59.3Z" clip-rule="evenodd"/>
    <path fill="#2371E1" d="m-302.12 389.22 271.3-312.6 490.15 424.56-271.3 312.6-490.15-424.56Z"/>
  </g>
  <defs>
    <radialGradient id="a" cx="0" cy="0" r="1" gradientTransform="matrix(349.92297 304.18876 -151.9297 174.77205 -2.08 100.3)" gradientUnits="userSpaceOnUse">
      <stop stop-color="#246DDF"/>
      <stop offset="1" stop-color="#03CBFF"/>
    </radialGradient>
  </defs>
</svg>
